<?xml version="1.0" standalone="no"?><!DOCTYPE svg PUBLIC "-//W3C//DTD SVG 1.1//EN" "http://www.w3.org/Graphics/SVG/1.1/DTD/svg11.dtd"><svg t="1624527488108" class="icon" viewBox="0 0 1024 1024" version="1.1" xmlns="http://www.w3.org/2000/svg" p-id="10814" xmlns:xlink="http://www.w3.org/1999/xlink" width="200" height="200"><defs><style type="text/css"></style></defs><path d="M810.7 138.7v746.7H213.3V138.7h597.4m0-74.7H213.3c-41.2 0-74.7 33.4-74.7 74.7v746.7c0 41.2 33.4 74.7 74.7 74.7h597.3c41.2 0 74.7-33.4 74.7-74.7V138.7c0-41.3-33.4-74.7-74.6-74.7z" p-id="10815" fill="#919191"></path><path d="M586.7 549.3H325.3c-20.6 0-37.3-16.7-37.3-37.3 0-20.6 16.7-37.3 37.3-37.3h261.3c20.6 0 37.3 16.7 37.3 37.3 0.1 20.6-16.6 37.3-37.2 37.3zM698.7 736H325.3c-20.6 0-37.3-16.7-37.3-37.3 0-20.6 16.7-37.3 37.3-37.3h373.3c20.6 0 37.3 16.7 37.3 37.3 0.1 20.6-16.6 37.3-37.2 37.3z" p-id="10816" fill="#919191"></path><path d="M325.3 325.3m-37.3 0a37.3 37.3 0 1 0 74.6 0 37.3 37.3 0 1 0-74.6 0Z" p-id="10817" fill="#919191"></path><path d="M512 325.3m-37.3 0a37.3 37.3 0 1 0 74.6 0 37.3 37.3 0 1 0-74.6 0Z" p-id="10818" fill="#919191"></path><path d="M698.7 325.3m-37.3 0a37.3 37.3 0 1 0 74.6 0 37.3 37.3 0 1 0-74.6 0Z" p-id="10819" fill="#919191"></path></svg>