<?xml version="1.0" standalone="no"?><!DOCTYPE svg PUBLIC "-//W3C//DTD SVG 1.1//EN" "http://www.w3.org/Graphics/SVG/1.1/DTD/svg11.dtd"><svg t="1586761163574" class="icon" viewBox="0 0 1024 1024" version="1.1" xmlns="http://www.w3.org/2000/svg" p-id="2770" xmlns:xlink="http://www.w3.org/1999/xlink" width="64" height="64"><defs><style type="text/css"></style></defs><path d="M514.381395 1014.474419c-276.24186 0-500.093023-223.851163-500.093023-500.093024s223.851163-500.093023 500.093023-500.093023 500.093023 223.851163 500.093024 500.093023-223.851163 500.093023-500.093024 500.093024m0-154.790698c85.730233 0 161.934884-30.95814 214.325582-92.874419 54.772093-54.772093 92.874419-138.12093 92.874418-214.325581h-614.4c0 85.730233 30.95814 161.934884 92.874419 214.325581 59.534884 61.916279 135.739535 92.874419 214.325581 92.874419m-147.646511-461.990698c38.102326 0 76.204651-30.95814 76.204651-76.204651 0-38.102326-30.95814-76.204651-76.204651-76.204651-38.102326 0-76.204651 30.95814-76.204651 76.204651s30.95814 76.204651 76.204651 76.204651m300.055814 0c38.102326 0 76.204651-30.95814 76.204651-76.204651 0-38.102326-30.95814-76.204651-76.204651-76.204651-38.102326 0-76.204651 30.95814-76.204651 76.204651s38.102326 76.204651 76.204651 76.204651" p-id="2771" fill="#8a8a8a"></path></svg>