<?xml version="1.0" standalone="no"?><!DOCTYPE svg PUBLIC "-//W3C//DTD SVG 1.1//EN" "http://www.w3.org/Graphics/SVG/1.1/DTD/svg11.dtd">
<svg t="1516609879479" class="icon" style="" viewBox="0 0 1024 1024" version="1.1" xmlns="http://www.w3.org/2000/svg"
     p-id="17231"
     width="64" height="64"><defs><style type="text/css"></style></defs><path d="M634.065 145.229q22.513 4.894 37.195 23.981t16.64 47.473q0 8.809 0.979 27.407t0.979 39.153-1.468 37.195-5.384 20.555q-5.873 6.852-11.256 6.362t-5.384 5.384q0 2.936-1.468 20.555t-8.32 48.941q-3.915 16.64-11.256 29.854t-15.172 23.981q-9.788 11.746-19.576 21.534-0.979 12.725-0.979 24.471v20.555q0 10.767 0.979 16.64 0.979 11.746 5.873 16.64t19.576 8.809q4.894 1.958 17.619 5.873t30.344 10.278 36.706 13.214 36.706 13.214 31.322 11.746 20.555 8.32q19.576 9.788 25.939 20.555t11.256 27.407q1.958 8.809 5.384 32.301t7.341 48.941 6.362 47.962 3.426 28.386q0.979 12.725-4.405 21.534t-24.96 13.704q-16.64 3.915-48.452 8.32t-73.901 8.32-92.499 6.362-106.202 2.447-106.692-1.958-93.478-5.384-75.369-7.831-51.388-9.299q-3.915-0.979-9.788-3.915t-11.256-7.341-8.32-10.767-1.958-14.193q0.979-6.852 5.384-30.833t10.278-51.388 10.767-51.388 6.852-29.854q3.915-11.746 11.256-24.471t24.96-26.428q8.809-6.852 32.301-14.682t48.941-14.682 47.962-11.746 29.365-6.852q14.682-2.936 25.939-7.341t11.256-12.235v-56.772q-10.767-8.809-20.555-19.576-8.809-8.809-17.619-21.045t-15.661-25.939q-13.704-26.428-17.619-48.452t-4.894-25.939-7.341-6.362-9.299-10.278q-7.831-16.64-7.341-35.238t2.447-52.856q2.936-34.259 11.256-65.581t36.706-57.751q14.682-12.725 39.153-21.045t49.92-12.235 48.452-3.915 34.748 2.936q12.725 3.915 20.555 8.32t12.235 8.32 7.341 7.341 5.873 5.384q4.894 3.915 12.725 2.447t27.407 2.447zM544.013 681.624l26.428 101.798 43.068-115.501-41.111-29.365zM473.538 636.598l-39.153 31.322 44.047 115.501 23.492-102.776zM821.999 253.878q13.704 1.958 22.024 13.704t9.299 28.386q0 4.894 0.979 16.151t0.979 23.002-0.979 22.024-2.936 12.235q-3.915 3.915-7.341 3.426t-3.426 3.426q0 1.958-0.489 12.235t-5.384 29.854q-1.958 9.788-5.873 17.619t-8.809 13.704q-4.894 6.852-11.746 12.725-0.979 7.831-0.979 14.682v22.513q0.979 6.852 3.915 9.788t11.746 4.894q3.915 0.979 18.598 5.873t31.812 11.256 31.812 11.746 20.555 8.32q11.746 5.873 16.151 12.235t6.362 17.129q0.979 4.894 2.936 18.598t3.915 29.365 3.915 28.386 1.958 16.64q0.979 7.831-2.447 13.214t-15.172 7.341q-9.788 1.958-25.449 4.894t-41.111 4.894q-1.958-11.746-5.873-22.513-2.936-9.788-6.852-20.555t-9.788-18.598q-10.767-14.682-22.513-23.492t-23.492-14.682-23.492-9.299-23.492-7.341q-49.92-17.619-80.264-24.471t-34.259-11.746q-1.958-2.936-2.447-6.852t-0.489-8.809 0.979-10.767q13.704-3.915 20.555-4.894t10.767-1.958q7.831-1.958 14.682-4.405t6.852-7.341v-34.259l-5.873-2.936q-1.958-0.979-3.915-4.894 5.873-12.725 11.746-30.344 4.894-15.661 10.278-38.174t9.299-53.835q2.936-24.471 3.915-44.047t0.979-34.259v-30.344q11.746-1.958 24.96-1.958t21.045 1.958q16.64 4.894 20.066 9.788t7.341 7.831q3.915 1.958 8.32 1.468t16.151 1.468zM772.079 567.102l6.852 26.428 17.619 5.873 13.704-35.238-20.555-17.619zM721.18 549.483l-16.64 16.64 0.979 3.915 30.344 8.809 3.915-10.767zM286.583 232.344q-15.661-1.958-31.322-0.979-13.704 0.979-29.854 4.894t-29.854 13.704q-11.746 7.831-18.598 18.598t-10.278 22.024-4.405 21.045-0.979 15.661q-0.979 12.725-1.958 23.002t0.979 18.108 2.936 10.767 3.915 4.894 4.894 2.447 3.915 13.214q0.979 12.725 6.362 24.96t11.256 20.066q2.936 4.894 7.341 9.299t8.32 9.299 9.788 9.788v28.386q-0.979 5.873-4.405 9.788t-13.214 5.873q-4.894 0.979-16.151 3.915t-24.471 6.362-26.428 7.341-21.045 6.852q-28.386 13.704-34.259 46.984-3.915 15.661-8.809 39.153t-6.852 33.28 0.489 20.555 16.151 13.704q6.852 1.958 17.129 2.936t20.066 2.936q10.767 1.958 22.513 2.936 1.958-11.746 5.873-23.492 2.936-10.767 8.32-21.534t13.214-20.555q7.831-8.809 19.087-17.129t22.024-16.151q11.746-8.809 25.449-16.64l-9.788-24.471 21.534-16.64 22.513 25.449 11.746-2.936q1.958 0 5.873-1.958 1.958-0.979 3.915-0.979l18.598-21.534 16.64 13.704q4.894-0.979 8.809-1.958t8.809-1.958l9.788-1.958q10.767-1.958 18.108-3.915t8.32-9.788q0-3.915 0.489-6.362t0.489-4.405v-2.936q-8.809-2.936-16.64-5.873l-13.704-3.915q-6.852-1.958-10.767-3.915-7.831-2.936-8.809-8.32t-0.979-14.193v-9.788q0-4.894 0.979-9.788 0-4.894 0.979-11.746-7.831-11.746-15.661-25.449-6.852-11.746-13.214-26.918t-10.278-31.812q-4.894-22.513-6.852-47.962t-0.979-46.005q0-24.471 2.936-47.962z" p-id="17232" fill="#8a8a8a"></path></svg>