<?xml version="1.0" standalone="no"?><!DOCTYPE svg PUBLIC "-//W3C//DTD SVG 1.1//EN" "http://www.w3.org/Graphics/SVG/1.1/DTD/svg11.dtd">
<svg t="1516610135969" class="icon" style="" viewBox="0 0 1024 1024" version="1.1" xmlns="http://www.w3.org/2000/svg"
     p-id="28170"
     width="64" height="64"><defs><style type="text/css"></style></defs><path d="M512 0C229.376 0 0 200.704 0 447.488c0 141.312 74.752 259.072 192.512 340.992L192.512 1024l234.496-128c0 0 52.224 0 84.992 0 282.624 0 512-200.704 512-448.512C1024 200.704 794.624 0 512 0zM256 512c-35.84 0-63.488-28.672-63.488-64.512 0-35.84 28.672-64.512 63.488-64.512 35.84 0 64.512 28.672 64.512 64.512S291.84 512 256 512zM512 512c-35.84 0-64.512-28.672-64.512-64.512 0-35.84 28.672-64.512 64.512-64.512 35.84 0 64.512 28.672 64.512 64.512C576.512 483.328 547.84 512 512 512zM768 512c-35.84 0-64.512-28.672-64.512-64.512 0-35.84 28.672-64.512 64.512-64.512 35.84 0 63.488 28.672 63.488 64.512C832.512 483.328 803.84 512 768 512z" p-id="28171" fill="#8a8a8a"></path></svg>