<?xml version="1.0" standalone="no"?><!DOCTYPE svg PUBLIC "-//W3C//DTD SVG 1.1//EN" "http://www.w3.org/Graphics/SVG/1.1/DTD/svg11.dtd"><svg t="1624527353045" class="icon" viewBox="0 0 1032 1024" version="1.1" xmlns="http://www.w3.org/2000/svg" p-id="5275" xmlns:xlink="http://www.w3.org/1999/xlink" width="201.5625" height="200"><defs><style type="text/css"></style></defs><path d="M732.16 328.704h-44.032V168.96c0-44.032-47.104-71.68-84.992-50.176L288.768 270.336H58.368c-31.744 0-58.368 25.6-58.368 58.368V614.4c0 31.744 25.6 58.368 58.368 58.368H65.536v159.744c0 44.032 35.84 80.896 80.896 80.896h44.032c44.032 0 80.896-35.84 80.896-80.896v-143.36l327.68 196.608c37.888 25.6 89.088-2.048 89.088-48.128v-194.56h44.032c46.08 0 82.944-36.864 82.944-82.944V411.648c0-46.08-36.864-82.944-82.944-82.944zM887.808 398.336c8.192 0 16.384-2.048 22.528-7.168l92.16-62.464c18.432-12.288 23.552-37.888 11.264-56.32-7.168-11.264-20.48-17.408-33.792-17.408-8.192 0-16.384 2.048-22.528 7.168l-92.16 62.464c-18.432 12.288-23.552 37.888-11.264 56.32 7.168 10.24 19.456 17.408 33.792 17.408zM910.336 615.424c-7.168-4.096-14.336-7.168-22.528-7.168-13.312 0-26.624 7.168-33.792 18.432-12.288 18.432-7.168 44.032 11.264 56.32l92.16 62.464c7.168 4.096 14.336 7.168 22.528 7.168 13.312 0 26.624-7.168 33.792-18.432 12.288-18.432 7.168-44.032-11.264-56.32l-92.16-62.464zM991.232 461.824h-89.088c-22.528 0-40.96 18.432-40.96 40.96s18.432 40.96 40.96 40.96h89.088c22.528 0 40.96-18.432 40.96-40.96s-18.432-40.96-40.96-40.96z" p-id="5276" data-spm-anchor-id="a313x.7781069.0.i0" class="selected" fill="#919191"></path></svg>