<?xml version="1.0" standalone="no"?><!DOCTYPE svg PUBLIC "-//W3C//DTD SVG 1.1//EN" "http://www.w3.org/Graphics/SVG/1.1/DTD/svg11.dtd"><svg t="1616907937016" class="icon" viewBox="0 0 1024 1024" version="1.1" xmlns="http://www.w3.org/2000/svg" p-id="1133" xmlns:xlink="http://www.w3.org/1999/xlink" width="108" height="108"><defs><style type="text/css"></style></defs><path d="M685.934703 854.431944l-174.604731 94.017932-174.604731-94.017932c-16.788916-10.07335-36.935616-3.357783-47.008966 13.431133-10.07335 16.788916-3.357783 36.935616 13.431133 47.008966l191.393648 104.091282c10.07335 6.715567 23.504483 6.715567 33.577833 0l191.393647-104.091282c16.788916-10.07335 23.504483-30.22005 13.431133-47.008966-6.715567-16.788916-26.862266-20.1467-47.008966-13.431133z m30.22005-641.336608l171.246947 104.091282 3.357783 194.751431c0 20.1467 16.788916 33.577833 33.577833 33.577833 20.1467 0 33.577833-16.788916 33.577833-33.577833l-6.715566-214.89813c0-10.07335-6.715567-23.504483-16.788917-26.862267l-188.035864-110.806848c-16.788916-10.07335-36.935616-6.715567-47.008966 10.07335-10.07335 13.431133-6.715567 36.935616 6.715567 47.008966 3.357783-6.715567 6.715567-3.357783 10.07335-3.357784-3.357783 0-3.357783 0 0 0zM98.322628 545.515882c20.1467 0 33.577833-13.431133 33.577833-33.577833l3.357783-194.751431 171.246948-104.091282c20.1467-6.715567 26.862266-26.862266 23.504483-43.651182-10.07335-20.1467-30.22005-26.862266-47.008966-20.1467-3.357783 0-6.715567 3.357783-10.07335 6.715567L84.891495 266.819869c-10.07335 6.715567-16.788916 16.788916-16.788917 26.862266L61.387012 508.580266c0 20.1467 16.788916 33.577833 36.935616 36.935616-3.357783 0-3.357783 0 0 0z m826.014688 57.082316c-53.724533-30.22005-124.237982-23.504483-171.246947 23.504483l-208.182564-117.522415V270.177652c73.871232-16.788916 117.522415-90.660149 100.733499-164.531381V102.288488C625.494604 28.417256 548.265588-15.233927 474.394356 4.912773c-73.871232 16.788916-117.522415 90.660149-100.733499 161.173597 10.07335 50.366749 50.366749 90.660149 100.733499 100.733499v235.04483l-208.182564 117.522415c-53.724533-53.724533-141.026898-53.724533-198.109214-3.357783-53.724533 50.366749-57.082316 137.669115-3.357783 191.393647l3.357783 3.357783c26.862266 26.862266 63.797882 40.293399 100.733499 40.2934 63.797882 0 117.522415-40.293399 134.311331-100.733499 6.715567-23.504483 6.715567-47.008966 0-70.513449l208.182564-117.522415 208.182564 117.522415c-20.1467 73.871232 23.504483 147.742465 94.017932 167.889164h3.357783c13.431133 3.357783 23.504483 3.357783 36.935616 6.715567 77.229016 0 137.669115-60.440099 141.026898-137.669115 0-43.651183-26.862266-90.660149-70.513449-114.164631" p-id="1134" fill="#919191"></path></svg>