<?xml version="1.0" standalone="no"?><!DOCTYPE svg PUBLIC "-//W3C//DTD SVG 1.1//EN" "http://www.w3.org/Graphics/SVG/1.1/DTD/svg11.dtd">
<svg t="1516612219185" class="icon" style="" viewBox="0 0 1024 1024" version="1.1" xmlns="http://www.w3.org/2000/svg"
     p-id="5170"
     width="64" height="64"><defs><style type="text/css"></style></defs><path d="M601.384261 533.255093l205.951629 0c11.389398 0 20.603247-10.05603 20.603247-22.468734 0-12.406564-9.213849-22.466688-20.603247-22.466688L601.384261 488.319671c-11.389398 0-20.608364 10.061147-20.608364 22.466688C580.776921 523.19804 589.995887 533.255093 601.384261 533.255093L601.384261 533.255093zM601.384261 443.382203l205.951629 0c11.389398 0 20.603247-10.06217 20.603247-22.469758 0-12.410658-9.213849-22.468734-20.603247-22.468734L601.384261 398.443711c-11.389398 0-20.608364 10.06217-20.608364 22.468734C580.776921 433.320033 589.995887 443.382203 601.384261 443.382203L601.384261 443.382203zM895.349433 173.751253 131.392004 173.751253c-37.235043 0-67.405179 30.170137-67.405179 67.405179l0 584.199369c0 37.216623 30.169113 67.410296 67.405179 67.410296l763.957429 0c37.236066 0 67.405179-30.193673 67.405179-67.410296L962.754612 241.155409C962.754612 203.921389 932.585499 173.751253 895.349433 173.751253L895.349433 173.751253zM895.349433 825.354777 131.392004 825.354777 131.392004 241.155409l763.957429 0L895.349433 825.354777 895.349433 825.354777zM277.444405 735.481887l157.284209 0c99.861382 0 101.109816-22.800285 101.109816-78.643128 0-55.845912-45.264926-101.115955-101.109816-101.115955l-4.210905 0c35.897581-24.221658 59.501162-65.269539 59.501162-111.827925 0-74.459852-60.358693-134.814452-134.814452-134.814452-74.451666 0-134.816498 60.3546-134.816498 134.814452 0 46.558385 23.609721 87.606267 59.503209 111.827925l-2.452865 0c-55.840796 0-101.110839 45.26902-101.110839 101.115955C176.334589 712.684672 176.594509 735.481887 277.444405 735.481887L277.444405 735.481887zM266.101055 443.250196c0-49.632397 40.241516-89.87903 89.87903-89.87903 49.633421 0 89.873913 40.245609 89.873913 89.87903 0 49.646724-40.240493 89.87903-89.873913 89.87903C306.341548 533.129226 266.101055 492.89692 266.101055 443.250196L266.101055 443.250196zM601.384261 623.134123l205.951629 0c11.389398 0 20.603247-10.07138 20.603247-22.468734 0-12.406564-9.213849-22.468734-20.603247-22.468734L601.384261 578.196655c-11.389398 0-20.608364 10.06217-20.608364 22.468734C580.776921 613.062743 589.995887 623.134123 601.384261 623.134123L601.384261 623.134123zM601.384261 623.134123" p-id="5171" fill="#707070"></path></svg>