<?xml version="1.0" standalone="no"?><!DOCTYPE svg PUBLIC "-//W3C//DTD SVG 1.1//EN" "http://www.w3.org/Graphics/SVG/1.1/DTD/svg11.dtd"><svg t="1624527463282" class="icon" viewBox="0 0 1024 1024" version="1.1" xmlns="http://www.w3.org/2000/svg" p-id="9863" xmlns:xlink="http://www.w3.org/1999/xlink" width="200" height="200"><defs><style type="text/css"></style></defs><path d="M593.26464 860.16l2.37568 0.12288c12.4928 1.37216 21.2992 13.312 18.08384 25.4976l-1.24928 4.38272C599.32672 932.08576 559.3088 962.56 512 962.56l-4.87424-0.1024c-46.77632-2.08896-85.58592-33.97632-96.8704-76.67712l-0.45056-2.27328c-1.76128-12.12416 8.00768-23.3472 20.93056-23.3472h162.52928zM512 61.44a30.72 30.72 0 0 1 30.72 30.72v32.23552c157.45024 15.83104 276.48 154.29632 276.48 314.368V655.36l0.12288 3.072A40.96 40.96 0 0 0 860.16 696.32h7.31136l3.4816 0.1024c25.3952 1.59744 47.84128 20.33664 50.3808 45.81376l0.22528 3.2768A51.2 51.2 0 0 1 870.42048 798.72H156.52864l-3.4816-0.1024c-25.3952-1.59744-47.84128-20.33664-50.3808-45.81376l-0.22528-3.2768A51.2 51.2 0 0 1 153.6 696.32H163.84l3.072-0.1024A40.96 40.96 0 0 0 204.8 655.36V430.08c0-159.29344 121.2416-290.26304 276.48-305.68448V92.16A30.72 30.72 0 0 1 512 61.44z" fill="#919191" p-id="9864"></path></svg>